<svg viewBox="0 0 156 30" fill="none" xmlns="http://www.w3.org/2000/svg">
<g clipPath="url(#clip0_149:1373)">
<path d="M40.3826 19.4189L36.319 15.4326H30.3133V13.222H37.0014C38.0185 13.222 38.7841 12.9764 39.2981 12.4852C39.8122 11.994 40.0699 11.2805 40.0713 10.3447C40.0713 9.41136 39.8026 8.7175 39.2652 8.26311C38.7277 7.80873 37.9718 7.58215 36.9973 7.58338H28.2598V19.4207H25.4766V5.08181H37.0014C37.8367 5.07114 38.6673 5.19597 39.4528 5.45023C40.1414 5.67529 40.7668 6.03172 41.2856 6.4947C41.7957 6.96477 42.1872 7.52691 42.434 8.14338C42.7081 8.84019 42.8421 9.57484 42.8298 10.3134C42.8298 11.5107 42.5391 12.5135 41.9577 13.3215C41.3812 14.127 40.5242 14.7406 39.5187 15.0678L44.3534 19.4281L40.3826 19.4189Z" fill="#ffffff"/>
<path d="M45.813 19.4189V5.08182H60.1438V7.58892H48.5983V16.921H60.1686V19.4262L45.813 19.4189ZM50.6497 13.1871V11.0723H59.548V13.1871H50.6497Z" fill="#ffffff"/>
<path d="M67.4093 15.4326V13.0029H73.8562C74.8445 13.0029 75.6142 12.7529 76.1653 12.2531C76.4442 11.9908 76.6611 11.6808 76.8028 11.3418C76.9445 11.0028 77.0081 10.6417 76.99 10.2802C76.99 9.45128 76.7151 8.79365 76.1653 8.30734C75.6155 7.82102 74.8458 7.57541 73.8562 7.5705H65.3559V19.4078H62.5664V5.08182H73.85C74.6962 5.07063 75.5377 5.19542 76.3344 5.45024C77.0243 5.67067 77.6535 6.02053 78.1796 6.47629C78.6888 6.93022 79.0801 7.47859 79.3259 8.0826C79.8564 9.46079 79.8564 10.9578 79.3259 12.336C79.0799 12.9574 78.6846 13.5232 78.1678 13.9935C77.651 14.4639 77.0252 14.8274 76.3344 15.0586C75.5406 15.3248 74.6977 15.4548 73.85 15.4418L67.4093 15.4326Z" fill="#ffffff"/>
<path d="M81.7173 19.4189V5.08182H84.5212V16.921H95.3203V19.4262L81.7173 19.4189Z" fill="#ffffff"/>
<path d="M114.067 19.4189L111.659 15.8084H104.064L105.39 13.7821H110.313L106.736 8.41419L99.4479 19.4244H96.2461L105.476 5.69157C105.621 5.4615 105.817 5.26028 106.052 5.10026C106.283 4.9529 106.561 4.87662 106.845 4.88289C107.127 4.87564 107.403 4.9521 107.631 5.10026C107.86 5.26288 108.051 5.46371 108.194 5.69157L117.444 19.4244L114.067 19.4189Z" fill="#ffffff"/>
<path d="M119.168 19.4189V5.08182H133.499V7.58892H121.943V16.921H133.513V19.4262L119.168 19.4189ZM124.005 13.1871V11.0723H132.905V13.1871H124.005Z" fill="#ffffff"/>
<path d="M152.069 19.4189L145.335 13.5555L138.665 19.4152H135.022L143.634 11.9565L135.641 5.08182H139.505L145.622 10.3908L151.65 5.08182H155.293L147.302 11.9602L156.002 19.4189H152.069Z" fill="#ffffff"/>
<path d="M37.3374 25.1294V24.5528H40.1063C40.2511 24.5616 40.3939 24.5192 40.5042 24.4349C40.5509 24.3945 40.5876 24.3457 40.6117 24.2917C40.6359 24.2378 40.647 24.1798 40.6444 24.1218C40.6493 24.0626 40.6393 24.0033 40.615 23.9481C40.5908 23.8929 40.5529 23.8434 40.5042 23.8031C40.3904 23.7257 40.249 23.6877 40.1063 23.6962H38.4095C38.2494 23.6979 38.0903 23.6742 37.9394 23.6262C37.8077 23.5832 37.6871 23.5167 37.5848 23.431C37.4873 23.3467 37.4107 23.245 37.3601 23.1326C37.3081 23.0153 37.2816 22.8903 37.2818 22.7641C37.2808 22.6383 37.3059 22.5134 37.356 22.3957C37.4039 22.285 37.4785 22.185 37.5745 22.1028C37.6789 22.0204 37.801 21.9577 37.9333 21.9186C38.0892 21.8685 38.2541 21.8442 38.4198 21.8468H41.0712V22.4234H38.4198C38.3574 22.42 38.2948 22.4277 38.2357 22.446C38.1766 22.4644 38.1222 22.493 38.0755 22.5302C38.0328 22.5695 37.9998 22.6164 37.9785 22.6678C37.9572 22.7191 37.9481 22.7739 37.9518 22.8286C37.9482 22.8829 37.9575 22.9373 37.9792 22.9881C38.0009 23.0389 38.0344 23.085 38.0776 23.1233C38.1706 23.195 38.2909 23.232 38.4136 23.2265H40.1063C40.4144 23.2069 40.7196 23.291 40.9619 23.4623C41.0648 23.5563 41.1439 23.6689 41.1941 23.7925C41.2442 23.9161 41.2642 24.0478 41.2526 24.1789C41.2545 24.3105 41.2307 24.4414 41.1825 24.5657C41.1392 24.6797 41.0689 24.784 40.9763 24.8715C40.875 24.961 40.7534 25.0301 40.6196 25.0741C40.4574 25.1248 40.2864 25.1491 40.1145 25.146L37.3374 25.1294Z" fill="#ffffff"/>
<path d="M42.0542 25.1294V21.8302H42.6995V25.1294H42.0542Z" fill="#ffffff"/>
<path d="M43.5987 25.1294V24.5528H46.3655C46.5109 24.5618 46.6545 24.5195 46.7654 24.4349C46.8119 24.3944 46.8482 24.3455 46.872 24.2916C46.8958 24.2376 46.9066 24.1797 46.9036 24.1218C46.9088 24.0628 46.8991 24.0035 46.8751 23.9484C46.8512 23.8932 46.8137 23.8435 46.7654 23.8031C46.651 23.7254 46.5089 23.6874 46.3655 23.6962H44.6707C44.5107 23.6979 44.3515 23.6742 44.2007 23.6262C44.0688 23.5834 43.9482 23.5169 43.8461 23.431C43.7485 23.3467 43.6719 23.245 43.6213 23.1326C43.5694 23.0153 43.5428 22.8903 43.543 22.7641C43.542 22.6383 43.5672 22.5134 43.6172 22.3957C43.6652 22.285 43.7398 22.185 43.8358 22.1028C43.9391 22.0201 44.0606 21.9573 44.1924 21.9186C44.3491 21.8685 44.5147 21.8442 44.681 21.8468H47.3303V22.4234H44.6707C44.544 22.4167 44.4195 22.4551 44.3244 22.5302C44.2825 22.5699 44.2501 22.6169 44.2291 22.6682C44.2082 22.7195 44.1992 22.7741 44.2027 22.8286C44.1991 22.8829 44.2084 22.9373 44.2301 22.9881C44.2518 23.0389 44.2853 23.085 44.3285 23.1233C44.4213 23.1954 44.5418 23.2323 44.6646 23.2265H46.3551C46.6633 23.2069 46.9685 23.291 47.2107 23.4623C47.314 23.5561 47.3936 23.6686 47.4441 23.7922C47.4946 23.9158 47.5148 24.0477 47.5035 24.1789C47.5054 24.3105 47.4817 24.4414 47.4334 24.5657C47.3901 24.6797 47.3198 24.784 47.2272 24.8715C47.1255 24.9614 47.0031 25.0306 46.8685 25.0741C46.7063 25.1248 46.5352 25.1491 46.3634 25.146L43.5987 25.1294Z" fill="#ffffff"/>
<path d="M49.4537 25.1294V22.4068H48.0518V21.8302H51.4989V22.4068H50.099V25.1294H49.4537Z" fill="#ffffff"/>
<path d="M52.1401 25.1294V21.8302H55.4388V22.4068H52.7793V24.5528H55.4409V25.1294H52.1401ZM53.2514 23.6962V23.2099H55.2987V23.6962H53.2514Z" fill="#ffffff"/>
<path d="M60.8013 25.1294L60.092 22.812L59.0612 24.9562C59.0295 25.0184 58.983 25.0737 58.9251 25.1183C58.8665 25.1592 58.7932 25.1795 58.7189 25.1754C58.645 25.1752 58.573 25.1537 58.5137 25.1143C58.4543 25.0748 58.4106 25.0195 58.3891 24.9562L57.3479 22.812L56.6428 25.1294H56.0078L56.9583 22.0291C56.969 21.9613 57.0077 21.8995 57.0668 21.8558C57.126 21.8122 57.2012 21.7899 57.2778 21.7933C57.3451 21.7931 57.411 21.8104 57.4675 21.8431C57.528 21.8785 57.5753 21.9291 57.6036 21.9886L58.7396 24.3207L59.8859 21.9849C59.9074 21.9272 59.949 21.8771 60.0046 21.842C60.0603 21.8068 60.127 21.7885 60.1951 21.7897C60.2705 21.7891 60.3435 21.8131 60.4004 21.8572C60.4574 21.9013 60.4943 21.9624 60.5044 22.0291L61.4507 25.1331L60.8013 25.1294Z" fill="#ffffff"/>
<path d="M65.9308 25.1294L65.3762 24.2986H63.6299L63.9351 23.8326H65.0669L64.2423 22.5983L62.5661 25.1294H61.8301L63.9536 21.972C63.9863 21.9188 64.0313 21.8723 64.0856 21.8357C64.1383 21.8019 64.2021 21.7844 64.267 21.786C64.332 21.7841 64.3958 21.8016 64.4484 21.8357C64.5015 21.8729 64.5457 21.9193 64.5783 21.972L66.706 25.1294H65.9308Z" fill="#ffffff"/>
<path d="M67.3081 25.1294V24.5528H70.0749C70.2204 24.5618 70.364 24.5195 70.4749 24.4349C70.5214 24.3944 70.5577 24.3455 70.5815 24.2916C70.6053 24.2376 70.6161 24.1797 70.613 24.1218C70.6182 24.0628 70.6085 24.0035 70.5846 23.9484C70.5607 23.8932 70.5232 23.8435 70.4749 23.8031C70.3604 23.7254 70.2183 23.6874 70.0749 23.6962H68.3802C68.2201 23.6979 68.061 23.6742 67.9102 23.6262C67.7783 23.5834 67.6576 23.5169 67.5555 23.431C67.458 23.3467 67.3814 23.245 67.3308 23.1326C67.2788 23.0153 67.2523 22.8903 67.2525 22.7641C67.2515 22.6383 67.2766 22.5134 67.3267 22.3957C67.3738 22.2846 67.4486 22.1844 67.5452 22.1028C67.6486 22.0201 67.77 21.9573 67.9019 21.9186C68.0586 21.8685 68.2241 21.8442 68.3905 21.8468H71.0398V22.4234H68.3988C68.2721 22.4167 68.1475 22.4551 68.0524 22.5302C68.0105 22.5699 67.9781 22.6169 67.9572 22.6682C67.9362 22.7195 67.9273 22.7741 67.9308 22.8286C67.9272 22.8827 67.9364 22.9369 67.9577 22.9877C67.979 23.0384 68.012 23.0846 68.0545 23.1233C68.1483 23.195 68.2693 23.2319 68.3926 23.2265H70.0832C70.3913 23.2069 70.6965 23.291 70.9388 23.4623C71.042 23.5561 71.1216 23.6686 71.1721 23.7922C71.2226 23.9158 71.2429 24.0477 71.2315 24.1789C71.2324 24.3104 71.2087 24.4411 71.1614 24.5657C71.1182 24.6797 71.0478 24.784 70.9553 24.8715C70.8535 24.9614 70.7311 25.0306 70.5965 25.0741C70.4343 25.1248 70.2632 25.1491 70.0914 25.146L67.3081 25.1294Z" fill="#ffffff"/>
<path d="M74.4106 25.1294V21.8302H77.7094V22.4068H75.0518V24.5528H77.7114V25.1294H74.4106ZM75.524 23.6962V23.2099H77.5692V23.6962H75.524Z" fill="#ffffff"/>
<path d="M83.0738 25.1294L82.3687 22.812L81.3276 24.9562C81.2965 25.0183 81.2508 25.0736 81.1936 25.1183C81.1377 25.1571 81.0684 25.1773 80.9977 25.1754C80.9236 25.1755 80.8515 25.1541 80.7921 25.1147C80.7327 25.0752 80.6891 25.0196 80.6678 24.9562L79.637 22.812L78.9319 25.1294H78.2969L79.2308 22.0291C79.2415 21.9613 79.2803 21.8995 79.3394 21.8558C79.3985 21.8122 79.4738 21.7899 79.5504 21.7933C79.62 21.7933 79.688 21.8118 79.7457 21.8466C79.8034 21.8815 79.8481 21.9309 79.8741 21.9886L81.0121 24.3207L82.1522 21.9849C82.1732 21.9269 82.2147 21.8764 82.2704 21.8412C82.3262 21.806 82.3932 21.7879 82.4615 21.7897C82.5368 21.7891 82.6099 21.8131 82.6668 21.8572C82.7237 21.9013 82.7607 21.9624 82.7708 22.0291L83.715 25.1331L83.0738 25.1294Z" fill="#ffffff"/>
<path d="M87.6322 24.2139V23.6613H89.1146C89.2118 23.6662 89.309 23.6533 89.4005 23.6235C89.4919 23.5938 89.5756 23.5477 89.6465 23.4881C89.7689 23.3621 89.8364 23.2009 89.8364 23.034C89.8364 22.8672 89.7689 22.7059 89.6465 22.58C89.5747 22.5219 89.4907 22.4772 89.3994 22.4484C89.3081 22.4196 89.2113 22.4073 89.1146 22.4123H87.1601V25.135H86.521V21.8302H89.1146C89.3091 21.8279 89.5025 21.8566 89.6857 21.915C89.8446 21.9653 89.9895 22.0457 90.1104 22.1508C90.228 22.2544 90.3182 22.3803 90.3743 22.5192C90.498 22.8359 90.498 23.1806 90.3743 23.4973C90.3163 23.6353 90.2263 23.7609 90.1104 23.8657C89.9904 23.9748 89.8455 24.0596 89.6857 24.1144C89.5033 24.1759 89.3095 24.2059 89.1146 24.2028L87.6322 24.2139Z" fill="#ffffff"/>
<path d="M92.8215 25.1294C92.5825 25.1316 92.3455 25.0899 92.1253 25.0069C91.905 24.9239 91.7062 24.8013 91.5412 24.6468C91.3769 24.4929 91.2487 24.3113 91.1639 24.1125C91.0735 23.8996 91.0281 23.6735 91.0299 23.4457C91.0271 23.2197 91.0725 22.9952 91.1639 22.7844C91.2475 22.5922 91.3761 22.4182 91.5412 22.2741C91.7029 22.1311 91.8959 22.0194 92.1082 21.9462C92.3356 21.8675 92.5777 21.8281 92.8215 21.8302H93.7204C93.9714 21.8276 94.2206 21.8683 94.4544 21.9499C94.6685 22.0229 94.8631 22.1352 95.0255 22.2797C95.1867 22.4255 95.313 22.5991 95.3966 22.7899C95.4869 22.999 95.5317 23.2216 95.5285 23.4457C95.5304 23.6735 95.485 23.8996 95.3945 24.1125C95.3122 24.3103 95.1856 24.491 95.0225 24.6436C94.8595 24.7963 94.6634 24.9177 94.4461 25.0004C94.2171 25.0885 93.9698 25.1324 93.7204 25.1294H92.8215ZM93.7204 24.5528C93.8809 24.5541 94.0401 24.5265 94.1884 24.4718C94.3264 24.4195 94.4511 24.3431 94.5554 24.247C94.6606 24.1483 94.7426 24.0318 94.7966 23.9044C94.9121 23.6269 94.9121 23.3216 94.7966 23.0441C94.7426 22.9199 94.6609 22.8068 94.5563 22.7118C94.4517 22.6168 94.3265 22.5418 94.1884 22.4915C94.0396 22.4383 93.8807 22.4114 93.7204 22.4123H92.8215C92.6646 22.4115 92.5091 22.4384 92.3638 22.4915C92.2264 22.5418 92.1021 22.6168 91.9985 22.7119C91.8949 22.807 91.8144 22.9201 91.7618 23.0441C91.7027 23.1816 91.6733 23.3279 91.6752 23.4752C91.6737 23.6224 91.7031 23.7686 91.7618 23.9062C91.8144 24.0335 91.8951 24.15 91.9989 24.2489C92.1024 24.3449 92.2265 24.4214 92.3638 24.4736C92.5086 24.5282 92.6644 24.5557 92.8215 24.5547L93.7204 24.5528Z" fill="#ffffff"/>
<path d="M96.2646 25.1294V21.8302H96.91V24.5528H99.384V25.1294H96.2646Z" fill="#ffffff"/>
<path d="M100.104 25.1294V21.8302H100.749V25.1294H100.104Z" fill="#ffffff"/>
<path d="M103.324 25.1294C103.078 25.1319 102.835 25.0879 102.61 25.0005C102.397 24.9169 102.203 24.7968 102.041 24.6468C101.878 24.4924 101.749 24.3109 101.664 24.1126C101.573 23.8996 101.528 23.6735 101.53 23.4457C101.527 23.2197 101.573 22.9952 101.664 22.7844C101.748 22.5926 101.877 22.4188 102.041 22.2742C102.204 22.1315 102.398 22.0199 102.61 21.9463C102.838 21.8674 103.08 21.828 103.324 21.8302H105.323V22.4068H103.324C103.166 22.4058 103.01 22.4327 102.864 22.486C102.727 22.5369 102.604 22.6121 102.501 22.707C102.397 22.8031 102.315 22.9172 102.262 23.0423C102.203 23.1798 102.173 23.3261 102.175 23.4734C102.174 23.6206 102.203 23.7668 102.262 23.9044C102.316 24.0291 102.397 24.143 102.501 24.2397C102.604 24.3357 102.727 24.4122 102.864 24.4644C103.009 24.5191 103.166 24.5467 103.324 24.5455H105.323V25.122L103.324 25.1294Z" fill="#ffffff"/>
<path d="M109.909 25.1294L109.367 24.2986H107.618L107.923 23.8326H109.055L108.231 22.5984L106.554 25.1294H105.818L107.942 21.972C107.975 21.9188 108.02 21.8723 108.074 21.8357C108.127 21.8018 108.192 21.7844 108.257 21.786C108.322 21.7844 108.385 21.8019 108.437 21.8357C108.49 21.8729 108.534 21.9193 108.567 21.972L110.694 25.1294H109.909Z" fill="#ffffff"/>
<path d="M114.727 25.1294L113.793 24.2083H112.412V23.7055H113.95C114.046 23.7119 114.143 23.6999 114.234 23.6704C114.325 23.6409 114.408 23.5944 114.477 23.5341C114.606 23.3971 114.67 23.2206 114.655 23.0423C114.663 22.9553 114.65 22.8679 114.618 22.7855C114.586 22.703 114.535 22.6274 114.469 22.5634C114.325 22.4532 114.139 22.397 113.95 22.4068H111.94V25.1294H111.298V21.8302H113.95C114.141 21.828 114.332 21.8567 114.513 21.9149C114.668 21.9674 114.809 22.0498 114.925 22.1563C115.042 22.2642 115.131 22.3928 115.189 22.5339C115.251 22.6944 115.282 22.8633 115.279 23.0331C115.288 23.277 115.216 23.5177 115.073 23.7257C114.94 23.9104 114.743 24.0513 114.513 24.1273L115.624 25.1294H114.727Z" fill="#ffffff"/>
<path d="M116.181 25.1294V21.8302H118.881C119.047 21.8287 119.212 21.8473 119.372 21.8855C119.508 21.9178 119.636 21.9721 119.749 22.0457C119.854 22.1164 119.937 22.2087 119.993 22.3147C120.052 22.4301 120.082 22.556 120.079 22.6831C120.081 22.7771 120.067 22.8708 120.038 22.9613C120.015 23.0335 119.977 23.1015 119.927 23.162C119.881 23.217 119.825 23.2649 119.762 23.3039C119.701 23.34 119.635 23.3679 119.566 23.3868C119.731 23.4343 119.875 23.5263 119.978 23.6502C120.092 23.7896 120.149 23.9589 120.141 24.131C120.144 24.2714 120.116 24.4109 120.059 24.5418C120.005 24.6608 119.923 24.7682 119.82 24.8568C119.711 24.9474 119.583 25.0165 119.442 25.0594C119.285 25.1074 119.12 25.131 118.954 25.1294H116.181ZM117.292 23.6963V23.2099H118.886C119.03 23.2214 119.175 23.1897 119.298 23.1197C119.345 23.0811 119.382 23.0332 119.405 22.9798C119.427 22.9264 119.436 22.869 119.43 22.812C119.434 22.7382 119.415 22.6648 119.374 22.6002C119.336 22.5462 119.281 22.5034 119.215 22.4768C119.136 22.4468 119.052 22.4282 118.966 22.4215C118.859 22.4115 118.752 22.4066 118.644 22.4068H116.83V24.5584H118.7C118.807 24.5592 118.914 24.5512 119.02 24.5344C119.108 24.523 119.194 24.4981 119.273 24.4607C119.34 24.4296 119.397 24.3832 119.438 24.3263C119.479 24.2646 119.499 24.1935 119.496 24.1218C119.5 24.0631 119.489 24.0044 119.465 23.9499C119.44 23.8954 119.402 23.8465 119.354 23.8068C119.235 23.727 119.089 23.6878 118.941 23.6963H117.292Z" fill="#ffffff"/>
<path d="M122.609 25.1294C122.363 25.1321 122.12 25.0882 121.895 25.0005C121.679 24.9169 121.484 24.7951 121.322 24.6426C121.16 24.49 121.034 24.3097 120.951 24.1126C120.859 23.9 120.813 23.6737 120.815 23.4457C120.812 23.2195 120.858 22.9949 120.951 22.7844C121.034 22.5923 121.162 22.4183 121.326 22.2742C121.489 22.1315 121.683 22.0199 121.895 21.9463C122.123 21.8672 122.365 21.8278 122.609 21.8302H123.508C123.758 21.8278 124.006 21.8685 124.24 21.95C124.454 22.0228 124.649 22.1353 124.811 22.28C124.973 22.4248 125.1 22.5986 125.182 22.79C125.272 22.999 125.317 23.2216 125.314 23.4457C125.316 23.6735 125.27 23.8996 125.18 24.1126C125.052 24.4154 124.823 24.6756 124.524 24.8576C124.225 25.0396 123.87 25.1346 123.508 25.1294H122.609ZM123.508 24.5528C123.668 24.5541 123.826 24.5266 123.974 24.4718C124.112 24.4196 124.238 24.3432 124.343 24.2471C124.448 24.1484 124.53 24.0319 124.584 23.9044C124.697 23.6265 124.697 23.3221 124.584 23.0442C124.529 22.919 124.446 22.8052 124.339 22.7101C124.233 22.615 124.105 22.5406 123.965 22.4915C123.817 22.4385 123.659 22.4116 123.499 22.4123H122.601C122.443 22.4114 122.287 22.4383 122.141 22.4915C122.004 22.5425 121.881 22.6177 121.778 22.7126C121.674 22.8087 121.592 22.9227 121.539 23.0479C121.48 23.1853 121.45 23.3316 121.452 23.4789C121.451 23.6262 121.48 23.7724 121.539 23.91C121.592 24.0373 121.673 24.1538 121.778 24.2526C121.881 24.3486 122.004 24.4251 122.141 24.4773C122.286 24.532 122.443 24.5596 122.601 24.5584L123.508 24.5528Z" fill="#ffffff"/>
<path d="M126.65 22.7162V25.1294H126.031V22.136C126.025 22.0449 126.056 21.955 126.12 21.8836C126.149 21.8526 126.186 21.8281 126.228 21.8118C126.27 21.7956 126.315 21.788 126.361 21.7897C126.409 21.7898 126.456 21.7992 126.499 21.8173C126.55 21.8403 126.596 21.8708 126.635 21.9075L129.241 24.2175V21.8044H129.86V24.8254C129.866 24.9173 129.834 25.008 129.769 25.0796C129.741 25.1093 129.705 25.1329 129.665 25.1485C129.625 25.1641 129.582 25.1714 129.538 25.1699C129.483 25.1683 129.428 25.1567 129.378 25.1358C129.327 25.1149 129.282 25.0852 129.245 25.0483L126.65 22.7162Z" fill="#ffffff"/>
<path d="M134.546 25.1294L133.992 24.2986H132.252L132.557 23.8326H133.689L132.864 22.5983L131.188 25.1294H130.452L132.575 21.972C132.608 21.9188 132.653 21.8723 132.707 21.8357C132.76 21.8019 132.824 21.7844 132.889 21.786C132.954 21.7841 133.017 21.8016 133.07 21.8357C133.123 21.8729 133.167 21.9193 133.2 21.972L135.328 25.1294H134.546Z" fill="#ffffff"/>
<path d="M137.115 25.1294V22.4068H135.713V21.8302H139.162V22.4068H137.76V25.1294H137.115Z" fill="#ffffff"/>
<path d="M141.488 25.1294C141.242 25.1321 140.999 25.0882 140.774 25.0005C140.558 24.9169 140.363 24.7951 140.201 24.6426C140.039 24.49 139.913 24.3097 139.83 24.1126C139.738 23.9 139.692 23.6737 139.694 23.4457C139.691 23.2195 139.737 22.9949 139.83 22.7844C139.913 22.5923 140.041 22.4183 140.205 22.2742C140.368 22.1315 140.562 22.0199 140.774 21.9463C141.002 21.8672 141.244 21.8278 141.488 21.8302H142.387C142.637 21.8278 142.885 21.8685 143.118 21.95C143.333 22.0228 143.528 22.1353 143.69 22.28C143.852 22.4248 143.979 22.5986 144.061 22.79C144.151 22.999 144.196 23.2216 144.193 23.4457C144.196 23.6736 144.15 23.8999 144.059 24.1126C143.931 24.4154 143.702 24.6756 143.403 24.8576C143.104 25.0396 142.749 25.1346 142.387 25.1294H141.488ZM142.387 24.5528C142.546 24.5541 142.705 24.5266 142.853 24.4718C142.991 24.4196 143.117 24.3432 143.222 24.2471C143.327 24.1484 143.409 24.0319 143.463 23.9044C143.576 23.6265 143.576 23.3221 143.463 23.0442C143.408 22.919 143.325 22.8052 143.218 22.7101C143.112 22.615 142.984 22.5406 142.844 22.4915C142.696 22.4385 142.538 22.4116 142.378 22.4123H141.488C141.33 22.4114 141.174 22.4383 141.028 22.4915C140.891 22.5425 140.768 22.6177 140.665 22.7126C140.561 22.8087 140.479 22.9227 140.426 23.0479C140.367 23.1853 140.337 23.3316 140.339 23.4789C140.338 23.6262 140.367 23.7724 140.426 23.91C140.479 24.0373 140.561 24.1538 140.665 24.2526C140.768 24.3486 140.891 24.4251 141.028 24.4773C141.173 24.532 141.33 24.5596 141.488 24.5584L142.387 24.5528Z" fill="#ffffff"/>
<path d="M10.7329 21.996L17.6293 28.1578L28.2305 28.1302L10.7741 12.4742L10.7329 21.996Z" fill="#ffffff"/>
<path d="M0 13.55V21.8376L7.14789 28.1873L7.19324 7.17081L0 13.55Z" fill="#ffffff"/>
<path d="M20.8396 7.85972L14.2814 2L4.19971 2.02579L20.8004 16.9155L20.8396 7.85972Z" fill="#ffffff"/>
</g>
<defs>
<clipPath id="clip0_149:1373">
<rect width="156" height="26.1873" fill="#ffffff" transform="translate(0 2)"/>
</clipPath>
</defs>
</svg>
