<svg width="181" height="30" viewBox="0 0 181 30" fill="none" xmlns="http://www.w3.org/2000/svg">
<g clip-path="url(#clip0_324_117)">
<path d="M47.095 19.6807L42.4063 15.1783H35.4766V12.6805H43.1937C44.3672 12.6805 45.2506 12.4029 45.8437 11.8479C46.4369 11.2928 46.7342 10.4865 46.7358 9.42912C46.7358 8.37309 46.4258 7.58905 45.8057 7.07699C45.1856 6.56493 44.3133 6.30821 43.1889 6.30682H33.1072V19.6827H29.8958V3.47386H43.1937C44.1575 3.4618 45.1159 3.60285 46.0221 3.89016C46.8173 4.14443 47.5391 4.54799 48.137 5.07247C48.7259 5.60252 49.1778 6.23715 49.462 6.93336C49.7777 7.72089 49.9323 8.55093 49.9187 9.38541C49.9187 10.7384 49.5833 11.8721 48.9125 12.7866C48.2473 13.6968 47.2584 14.3902 46.0983 14.7599L51.6767 19.6848L47.095 19.6807Z" fill="#00538C"/>
<path d="M53.3611 19.6809V3.47412H69.8967V6.305H56.5749V16.85H69.9252V19.6809H53.3611ZM58.9419 12.637V10.2516H69.2092V12.637H58.9419Z" fill="#00538C"/>
<path d="M78.2796 15.1784V12.437H85.7184C86.8586 12.437 87.7467 12.1546 88.3827 11.5898C88.7041 11.2931 88.954 10.9428 89.1174 10.5598C89.2809 10.1768 89.3547 9.76894 89.3342 9.3605C89.3342 8.42381 89.0171 7.6807 88.3827 7.13118C87.7483 6.58165 86.8602 6.30412 85.7184 6.29857H75.9103V19.6745H72.6917V3.47393H85.7112C86.6875 3.46128 87.6585 3.60229 88.5778 3.89023C89.3736 4.1399 90.0994 4.53515 90.7069 5.04965C91.2949 5.56301 91.7465 6.18344 92.0295 6.86682C92.6416 8.42343 92.6416 10.1144 92.0295 11.671C91.7457 12.3732 91.2896 13.0125 90.6933 13.544C90.097 14.0754 89.3749 14.4862 88.5778 14.7475C87.662 15.049 86.6895 15.1966 85.7112 15.1825L78.2796 15.1784Z" fill="#00538C"/>
<path d="M94.7891 19.6809V3.47412H98.0243V16.85H110.485V19.6809H94.7891Z" fill="#00538C"/>
<path d="M132.116 19.6806L129.337 15.6029H120.574L122.103 13.3132H127.784L123.657 7.24974L115.247 19.689H111.553L122.203 4.17324C122.369 3.91285 122.595 3.68537 122.867 3.50507C123.133 3.33759 123.455 3.25129 123.783 3.25945C124.108 3.2503 124.427 3.33679 124.689 3.50507C124.954 3.68832 125.174 3.91536 125.339 4.17324L136.013 19.689L132.116 19.6806Z" fill="#00538C"/>
<path d="M138.001 19.6809V3.47412H154.537V6.305H141.203V16.85H154.554V19.6809H138.001ZM143.582 12.637V10.2516H153.852V12.637H143.582Z" fill="#00538C"/>
<path d="M175.963 19.6809L168.194 13.0596L160.498 19.6809H156.295L166.231 11.2549L157.009 3.47412H161.467L168.525 9.47101L175.481 3.47412H179.684L170.464 11.2549L180.502 19.6809H175.963Z" fill="#00538C"/>
<path d="M43.5813 26.1358V25.4842H46.7762C46.9432 25.4941 47.108 25.4463 47.2353 25.351C47.2891 25.3052 47.3313 25.2501 47.3592 25.1891C47.387 25.1282 47.3999 25.0628 47.397 24.9972C47.4024 24.9301 47.3907 24.8628 47.3627 24.8001C47.3348 24.7375 47.2912 24.6811 47.2353 24.635C47.1035 24.5483 46.9407 24.5055 46.7762 24.5142H44.8183C44.6335 24.5172 44.4497 24.4904 44.276 24.4351C44.1235 24.3873 43.9842 24.3121 43.8668 24.2145C43.7548 24.1197 43.6665 24.0056 43.6075 23.8794C43.4902 23.6077 43.4902 23.308 43.6075 23.0363C43.6616 22.9106 43.7478 22.7974 43.8597 22.7054C43.9808 22.6131 44.1214 22.5424 44.2736 22.4972C44.454 22.4424 44.644 22.4156 44.835 22.4181H47.8942V23.0697H44.8302C44.7581 23.0654 44.6858 23.0739 44.6175 23.0946C44.5493 23.1154 44.4865 23.1479 44.433 23.1904C44.3838 23.2344 44.3456 23.287 44.3211 23.3447C44.2965 23.4024 44.286 23.464 44.2902 23.5255C44.2859 23.5869 44.2966 23.6483 44.3216 23.7058C44.3466 23.7632 44.3854 23.8153 44.4353 23.8586C44.5418 23.9411 44.6811 23.9837 44.8231 23.9772H46.7762C47.1317 23.955 47.4839 24.0501 47.7634 24.2436C47.8821 24.3498 47.9735 24.4771 48.0313 24.6167C48.0892 24.7564 48.1122 24.9053 48.0988 25.0534C48.101 25.2014 48.0736 25.3486 48.0179 25.4884C47.968 25.6178 47.8869 25.7364 47.78 25.836C47.6629 25.9365 47.5226 26.0138 47.3685 26.0629C47.1817 26.1217 46.9841 26.1499 46.7857 26.1462L43.5813 26.1358Z" fill="#37C2DB"/>
<path d="M49.0244 26.1357V22.4077H49.769V26.1357H49.0244Z" fill="#37C2DB"/>
<path d="M50.8062 26.1358V25.4842H53.9986C54.1665 25.4944 54.3322 25.4466 54.4601 25.351C54.5136 25.3051 54.5555 25.2499 54.5829 25.1889C54.6104 25.128 54.6229 25.0626 54.6195 24.9972C54.6252 24.9302 54.6139 24.863 54.5863 24.8004C54.5588 24.7378 54.5157 24.6813 54.4601 24.635C54.3275 24.5482 54.164 24.5054 53.9986 24.5142H52.0432C51.8584 24.5172 51.6745 24.4904 51.5008 24.4351C51.3481 24.3878 51.2086 24.3126 51.0916 24.2145C50.9796 24.1197 50.8913 24.0056 50.8323 23.8794C50.7151 23.6077 50.7151 23.308 50.8323 23.0363C50.8864 22.9106 50.9727 22.7974 51.0845 22.7054C51.2043 22.6125 51.3443 22.5417 51.4961 22.4972C51.6773 22.4424 51.8681 22.4156 52.0598 22.4181H55.1167V23.0697H52.0432C51.9708 23.0655 51.8981 23.074 51.8294 23.0947C51.7608 23.1154 51.6976 23.148 51.6435 23.1904C51.5951 23.2348 51.5577 23.2875 51.5335 23.3452C51.5094 23.4028 51.4991 23.4642 51.5032 23.5255C51.4988 23.5869 51.5095 23.6483 51.5345 23.7058C51.5596 23.7632 51.5984 23.8153 51.6483 23.8586C51.7545 23.9415 51.894 23.9841 52.0361 23.9772H53.9867C54.3423 23.955 54.6945 24.0501 54.974 24.2436C55.0931 24.3497 55.1849 24.4768 55.2432 24.6165C55.3014 24.7561 55.3248 24.9051 55.3118 25.0534C55.314 25.2014 55.2866 25.3486 55.2309 25.4884C55.181 25.6178 55.0999 25.7364 54.993 25.836C54.8754 25.937 54.7342 26.0144 54.5791 26.0629C54.3924 26.122 54.1948 26.1503 53.9963 26.1462L50.8062 26.1358Z" fill="#37C2DB"/>
<path d="M57.5622 26.1357V23.0592H55.9446V22.4077H59.9221V23.0592H58.3068V26.1357H57.5622Z" fill="#37C2DB"/>
<path d="M60.6619 26.1357V22.4077H64.4681V23.0592H61.3993V25.4842H64.4705V26.1357H60.6619ZM61.9441 24.5142V23.9668H64.3063V24.5142H61.9441Z" fill="#37C2DB"/>
<path d="M70.6554 26.1355L69.8371 23.5149L68.6476 25.9399C68.6116 26.0098 68.5579 26.0718 68.4906 26.121C68.4235 26.168 68.3385 26.1911 68.2527 26.1855C68.1676 26.1856 68.0846 26.1619 68.0161 26.1176C67.9476 26.0734 67.8971 26.0111 67.8721 25.9399L66.6708 23.5149L65.8572 26.1355H65.1245L66.2212 22.6282C66.2335 22.5515 66.2782 22.4816 66.3465 22.4323C66.4147 22.383 66.5015 22.3578 66.5899 22.3617C66.6705 22.3618 66.7492 22.3828 66.8161 22.4221C66.8831 22.4614 66.9351 22.5171 66.9658 22.5824L68.2765 25.2176L69.5992 22.5824C69.6237 22.5169 69.6716 22.4601 69.7359 22.4204C69.8001 22.3807 69.8773 22.3601 69.956 22.3617C70.0422 22.3609 70.1259 22.3874 70.1915 22.4364C70.2571 22.4854 70.3002 22.5535 70.3128 22.6282L71.4047 26.1355H70.6554Z" fill="#37C2DB"/>
<path d="M76.5741 26.1355L75.9342 25.1967H73.9193L74.2714 24.668H75.5774L74.6258 23.2734L72.6918 26.1355H71.8425L74.2951 22.5698C74.3329 22.5102 74.3848 22.4584 74.4474 22.4179C74.5075 22.378 74.5814 22.3574 74.6567 22.3596C74.7321 22.3571 74.8062 22.3777 74.8661 22.4179C74.9273 22.4591 74.9782 22.5108 75.0159 22.5698L77.4709 26.1396L76.5741 26.1355Z" fill="#37C2DB"/>
<path d="M78.1631 26.1357V25.4842H81.3556C81.5234 25.4944 81.6891 25.4466 81.8171 25.351C81.8706 25.3051 81.9124 25.2499 81.9399 25.1889C81.9673 25.1279 81.9798 25.0626 81.9765 24.9971C81.9822 24.9302 81.9708 24.863 81.9433 24.8004C81.9157 24.7377 81.8726 24.6812 81.8171 24.6349C81.6844 24.5481 81.5209 24.5054 81.3556 24.5142H79.4001C79.2223 24.5178 79.0451 24.4938 78.8768 24.4434C78.7241 24.3961 78.5846 24.3209 78.4676 24.2228C78.3556 24.128 78.2673 24.0139 78.2083 23.8877C78.091 23.616 78.091 23.3163 78.2083 23.0446C78.2616 22.9186 78.3479 22.8052 78.4605 22.7137C78.5803 22.6208 78.7202 22.55 78.872 22.5055C79.0533 22.4507 79.2441 22.4239 79.4358 22.4264H82.4927V23.078H79.4215C79.3491 23.0738 79.2764 23.0823 79.2078 23.103C79.1392 23.1237 79.076 23.1563 79.0219 23.1987C78.9735 23.2431 78.936 23.2958 78.9119 23.3535C78.8877 23.4111 78.8774 23.4725 78.8815 23.5338C78.8773 23.595 78.8879 23.6562 78.9124 23.7136C78.937 23.771 78.9751 23.8232 79.0243 23.8669C79.1317 23.9493 79.2717 23.9918 79.4144 23.9855H81.3651C81.7206 23.9633 82.0728 24.0584 82.3523 24.2519C82.4715 24.358 82.5633 24.4851 82.6215 24.6248C82.6798 24.7644 82.7032 24.9134 82.6901 25.0616C82.6911 25.2096 82.6638 25.3566 82.6092 25.4967C82.5593 25.6261 82.4782 25.7447 82.3714 25.8443C82.2538 25.9453 82.1126 26.0227 81.9574 26.0712C81.7707 26.1303 81.5731 26.1586 81.3746 26.1545L78.1631 26.1357Z" fill="#37C2DB"/>
<path d="M86.3584 26.1357V22.4077H90.1646V23.0592H87.0982V25.4842H90.167V26.1357H86.3584ZM87.643 24.5142V23.9668H90.0028V24.5142H87.643Z" fill="#37C2DB"/>
<path d="M96.3544 26.1355L95.5408 23.5149L94.3395 25.9399C94.3043 26.0097 94.2514 26.0716 94.1848 26.121C94.1208 26.1656 94.0406 26.1885 93.9589 26.1855C93.8736 26.186 93.7905 26.1623 93.7219 26.1181C93.6533 26.0738 93.6029 26.0113 93.5782 25.9399L92.3888 23.5149L91.5752 26.1355H90.8425L91.9392 22.6282C91.9516 22.5515 91.9962 22.4816 92.0645 22.4323C92.1327 22.383 92.2195 22.3578 92.3079 22.3617C92.3855 22.3617 92.4615 22.3812 92.5268 22.4179C92.5975 22.4564 92.6518 22.5142 92.6814 22.5824L93.9945 25.2176L95.291 22.5824C95.3148 22.5166 95.3626 22.4594 95.427 22.4195C95.4915 22.3797 95.569 22.3594 95.6479 22.3617C95.7341 22.3609 95.8177 22.3874 95.8833 22.4364C95.9489 22.4854 95.992 22.5535 96.0047 22.6282L97.0942 26.1355H96.3544Z" fill="#37C2DB"/>
<path d="M101.614 25.0989V24.4745H103.324C103.436 24.4804 103.549 24.4663 103.654 24.433C103.76 24.3997 103.856 24.3479 103.938 24.2809C104.012 24.2122 104.069 24.1314 104.107 24.0431C104.144 23.9548 104.161 23.8609 104.157 23.7667C104.162 23.6729 104.145 23.5791 104.108 23.491C104.07 23.403 104.012 23.3226 103.938 23.2547C103.856 23.1887 103.759 23.1379 103.653 23.1053C103.548 23.0728 103.436 23.0592 103.324 23.0653H101.069V26.1418H100.332V22.4075H103.324C103.549 22.4038 103.772 22.4363 103.983 22.5033C104.168 22.5625 104.335 22.6563 104.473 22.778C104.609 22.8953 104.713 23.0375 104.778 23.1943C104.921 23.5522 104.921 23.9418 104.778 24.2996C104.713 24.4613 104.608 24.6085 104.471 24.7308C104.333 24.8531 104.167 24.9475 103.983 25.0073C103.773 25.0768 103.549 25.1107 103.324 25.1073L101.614 25.0989Z" fill="#37C2DB"/>
<path d="M107.602 26.1359C107.319 26.1379 107.038 26.0875 106.779 25.9881C106.532 25.8957 106.309 25.7596 106.125 25.5885C105.934 25.4157 105.786 25.2111 105.689 24.9869C105.585 24.7463 105.532 24.4908 105.535 24.2334C105.531 23.9773 105.584 23.723 105.689 23.4841C105.787 23.2673 105.935 23.0709 106.125 22.9075C106.312 22.7472 106.534 22.6218 106.779 22.539C107.041 22.4501 107.32 22.4056 107.602 22.4079H108.639C108.928 22.4043 109.216 22.4496 109.486 22.5411C109.733 22.6248 109.957 22.7526 110.144 22.9164C110.331 23.0802 110.477 23.2764 110.573 23.4924C110.678 23.7286 110.729 23.9801 110.725 24.2334C110.727 24.4908 110.675 24.7463 110.571 24.9869C110.473 25.2106 110.326 25.4151 110.138 25.5885C109.95 25.7593 109.725 25.8953 109.476 25.9881C109.212 26.0884 108.927 26.1387 108.639 26.1359H107.602ZM108.639 25.4844C108.824 25.4862 109.008 25.4543 109.179 25.3907C109.338 25.3325 109.482 25.2468 109.602 25.1389C109.724 25.0273 109.818 24.8957 109.881 24.7517C109.948 24.5961 109.982 24.431 109.981 24.2646C109.983 24.0989 109.949 23.9343 109.881 23.7796C109.819 23.6367 109.724 23.5063 109.602 23.3966C109.481 23.2906 109.337 23.2065 109.179 23.1489C109.008 23.0878 108.824 23.0573 108.639 23.0594H107.602C107.421 23.0575 107.241 23.088 107.074 23.1489C106.916 23.2065 106.773 23.2907 106.653 23.3966C106.533 23.5061 106.44 23.6357 106.379 23.7776C106.31 23.9328 106.277 24.0982 106.279 24.2646C106.278 24.431 106.312 24.5961 106.379 24.7517C106.44 24.8955 106.533 25.0271 106.653 25.1389C106.772 25.2468 106.915 25.3325 107.074 25.3907C107.24 25.454 107.42 25.486 107.602 25.4844H108.639Z" fill="#37C2DB"/>
<path d="M111.574 26.1357V22.4077H112.319V25.4842H115.174V26.1357H111.574Z" fill="#37C2DB"/>
<path d="M116.004 26.1357V22.4077H116.748V26.1357H116.004Z" fill="#37C2DB"/>
<path d="M119.72 26.1357C119.444 26.137 119.17 26.0892 118.916 25.9951C118.661 25.901 118.431 25.7625 118.24 25.5883C118.051 25.415 117.903 25.2105 117.805 24.9867C117.702 24.7466 117.65 24.4918 117.652 24.2353C117.649 23.9792 117.702 23.7248 117.807 23.4859C117.906 23.2697 118.054 23.0734 118.242 22.9093C118.431 22.7494 118.654 22.6241 118.899 22.5409C119.161 22.4518 119.441 22.4073 119.722 22.4098H122.03V23.0613H119.722C119.54 23.0592 119.36 23.0896 119.192 23.1508C119.033 23.2076 118.89 23.2924 118.77 23.3998C118.651 23.5072 118.558 23.635 118.497 23.7753C118.428 23.9305 118.394 24.0959 118.397 24.2623C118.396 24.4287 118.43 24.5938 118.497 24.7494C118.559 24.8933 118.652 25.0249 118.773 25.1366C118.892 25.2444 119.034 25.3301 119.192 25.3884C119.359 25.452 119.54 25.4839 119.722 25.4821H122.03V26.1336L119.72 26.1357Z" fill="#37C2DB"/>
<path d="M127.318 26.1359L126.692 25.1972H124.675L125.027 24.6684H126.333L125.381 23.2738L123.447 26.1359H122.598L125.039 22.5703C125.077 22.5107 125.129 22.4589 125.191 22.4183C125.252 22.3784 125.327 22.3579 125.403 22.36C125.477 22.3578 125.551 22.3784 125.61 22.4183C125.671 22.4596 125.722 22.5113 125.76 22.5703L128.215 26.1401L127.318 26.1359Z" fill="#37C2DB"/>
<path d="M132.877 26.1355L131.8 25.0947H130.206V24.5202H131.98C132.092 24.5279 132.203 24.5148 132.308 24.4818C132.413 24.4488 132.509 24.3966 132.589 24.3287C132.737 24.1735 132.81 23.9744 132.794 23.773C132.803 23.6747 132.789 23.5758 132.752 23.4826C132.715 23.3894 132.657 23.304 132.58 23.2318C132.414 23.1063 132.199 23.0427 131.98 23.0548H129.661V26.1313H128.921V22.4075H131.98C132.202 22.4039 132.422 22.4364 132.63 22.5032C132.809 22.5618 132.972 22.6542 133.106 22.7738C133.24 22.8966 133.344 23.0426 133.41 23.2026C133.482 23.3839 133.518 23.5748 133.515 23.7667C133.524 24.0416 133.441 24.3129 133.277 24.5473C133.124 24.7565 132.896 24.9159 132.63 25.0011L133.912 26.1355H132.877Z" fill="#37C2DB"/>
<path d="M134.554 26.1358V22.4078H137.671C137.862 22.4061 138.052 22.4271 138.237 22.4703C138.394 22.505 138.542 22.5665 138.672 22.6514C138.792 22.7312 138.888 22.8346 138.953 22.9532C139.021 23.0837 139.055 23.2259 139.053 23.3695C139.055 23.4751 139.039 23.5803 139.005 23.6817C138.979 23.7642 138.935 23.8417 138.877 23.9107C138.824 23.9722 138.759 24.0256 138.687 24.0689C138.618 24.1111 138.541 24.1434 138.461 24.1646C138.651 24.2177 138.817 24.3218 138.936 24.4623C139.067 24.6198 139.133 24.8111 139.124 25.0056C139.127 25.1642 139.095 25.3219 139.029 25.4697C138.966 25.6068 138.87 25.7301 138.747 25.8308C138.623 25.9315 138.476 26.0072 138.315 26.0526C138.134 26.1085 137.944 26.136 137.752 26.1338L134.554 26.1358ZM135.837 24.5143V23.9669H137.676C137.843 23.9788 138.009 23.943 138.151 23.8649C138.206 23.821 138.248 23.7666 138.275 23.7059C138.301 23.6451 138.311 23.5798 138.304 23.5152C138.308 23.4324 138.286 23.35 138.239 23.2779C138.195 23.2169 138.131 23.1685 138.056 23.1384C137.965 23.103 137.868 23.0812 137.768 23.0739C137.645 23.0634 137.521 23.0585 137.397 23.0593H135.304V25.4843H137.461C137.585 25.4848 137.708 25.4765 137.83 25.4593C137.933 25.4458 138.032 25.4169 138.123 25.374C138.2 25.3389 138.265 25.2873 138.313 25.2241C138.361 25.1544 138.384 25.0741 138.38 24.9931C138.384 24.9268 138.372 24.8604 138.344 24.7988C138.315 24.7373 138.272 24.682 138.216 24.6371C138.08 24.5449 137.911 24.4996 137.74 24.5102L135.837 24.5143Z" fill="#37C2DB"/>
<path d="M141.972 26.1359C141.695 26.1375 141.421 26.0898 141.166 25.9957C140.912 25.9016 140.681 25.763 140.49 25.5885C140.3 25.4156 140.153 25.211 140.057 24.9869C139.951 24.7467 139.897 24.491 139.9 24.2334C139.896 23.9771 139.949 23.7226 140.057 23.484C140.154 23.2675 140.301 23.0711 140.49 22.9075C140.678 22.7475 140.902 22.6223 141.146 22.539C141.409 22.4497 141.688 22.4052 141.969 22.4079H143.007C143.295 22.4045 143.582 22.4497 143.851 22.5411C144.098 22.6251 144.322 22.7526 144.51 22.9158C144.698 23.0791 144.844 23.2757 144.938 23.4924C145.043 23.7285 145.095 23.9801 145.091 24.2334C145.093 24.4908 145.04 24.7463 144.936 24.9869C144.84 25.211 144.692 25.4156 144.503 25.5885C144.316 25.7593 144.092 25.8952 143.844 25.9881C143.58 26.0881 143.295 26.1385 143.007 26.1359H141.972ZM143.009 25.4844C143.194 25.4861 143.377 25.4542 143.547 25.3907C143.706 25.3325 143.851 25.2469 143.972 25.1389C144.094 25.0273 144.188 24.8957 144.251 24.7517C144.317 24.596 144.35 24.4309 144.348 24.2646C144.351 24.099 144.318 23.9345 144.251 23.7796C144.189 23.6366 144.094 23.5063 143.972 23.3966C143.85 23.2906 143.706 23.2064 143.547 23.1489C143.376 23.0878 143.193 23.0573 143.009 23.0594H141.972C141.79 23.0573 141.609 23.0877 141.441 23.1489C141.283 23.2057 141.139 23.2905 141.02 23.3979C140.9 23.5054 140.807 23.6332 140.747 23.7734C140.678 23.9286 140.644 24.094 140.647 24.2605C140.645 24.4268 140.679 24.592 140.747 24.7475C140.808 24.8914 140.902 25.0231 141.023 25.1347C141.141 25.2426 141.284 25.3282 141.441 25.3866C141.609 25.4501 141.789 25.482 141.972 25.4802L143.009 25.4844Z" fill="#37C2DB"/>
<path d="M146.634 23.4028V26.1317H145.921V22.7513C145.913 22.6485 145.95 22.5468 146.023 22.4661C146.058 22.4318 146.1 22.4046 146.149 22.3866C146.197 22.3686 146.249 22.3602 146.301 22.3621C146.356 22.3622 146.411 22.3729 146.461 22.3933C146.519 22.4193 146.572 22.4538 146.618 22.4953L149.625 25.1055V22.3766H150.338V25.7924C150.346 25.8963 150.308 25.9987 150.234 26.0797C150.2 26.1129 150.159 26.1392 150.113 26.1568C150.067 26.1745 150.017 26.183 149.967 26.1817C149.903 26.1796 149.84 26.1661 149.782 26.1422C149.724 26.1182 149.672 26.0842 149.629 26.0422L146.634 23.4028Z" fill="#37C2DB"/>
<path d="M155.745 26.1355L155.106 25.1967H153.098L153.45 24.668H154.756L153.804 23.2734L151.87 26.1355H151.021L153.466 22.5698C153.504 22.5102 153.556 22.4584 153.619 22.4179C153.679 22.378 153.753 22.3574 153.828 22.3596C153.903 22.3571 153.978 22.3777 154.037 22.4179C154.099 22.4591 154.15 22.5108 154.187 22.5698L156.642 26.1396L155.745 26.1355Z" fill="#37C2DB"/>
<path d="M158.709 26.1357V23.0592H157.092V22.4077H161.072V23.0592H159.454V26.1357H158.709Z" fill="#37C2DB"/>
<path d="M163.755 26.1359C163.479 26.1372 163.205 26.0894 162.951 25.9953C162.697 25.9012 162.467 25.7628 162.275 25.5885C162.086 25.4156 161.939 25.211 161.842 24.9869C161.736 24.7467 161.683 24.491 161.685 24.2334C161.682 23.9771 161.735 23.7226 161.842 23.484C161.939 23.2675 162.087 23.0711 162.275 22.9075C162.464 22.7475 162.687 22.6223 162.932 22.539C163.194 22.4497 163.474 22.4052 163.755 22.4079H164.792C165.081 22.4045 165.368 22.4497 165.637 22.5411C165.884 22.6251 166.108 22.7526 166.296 22.9158C166.484 23.0791 166.63 23.2757 166.724 23.4924C166.829 23.7285 166.88 23.9801 166.876 24.2334C166.88 24.4909 166.827 24.7466 166.722 24.9869C166.625 25.211 166.478 25.4156 166.289 25.5885C166.102 25.7593 165.878 25.8952 165.63 25.9881C165.365 26.0881 165.08 26.1385 164.792 26.1359H163.755ZM164.792 25.4844C164.977 25.4861 165.16 25.4542 165.33 25.3907C165.49 25.3325 165.634 25.2469 165.756 25.1389C165.877 25.0273 165.972 24.8957 166.034 24.7517C166.101 24.596 166.134 24.4309 166.132 24.2646C166.134 24.099 166.101 23.9345 166.034 23.7796C165.972 23.6366 165.877 23.5063 165.756 23.3966C165.634 23.2906 165.489 23.2064 165.33 23.1489C165.159 23.0878 164.977 23.0573 164.792 23.0594H163.755C163.573 23.0573 163.393 23.0877 163.225 23.1489C163.066 23.2057 162.923 23.2905 162.803 23.3979C162.684 23.5054 162.591 23.6332 162.53 23.7734C162.461 23.9286 162.427 24.094 162.43 24.2605C162.429 24.4268 162.463 24.592 162.53 24.7475C162.592 24.8914 162.685 25.0231 162.806 25.1347C162.925 25.2426 163.067 25.3282 163.225 25.3866C163.392 25.4501 163.573 25.482 163.755 25.4802L164.792 25.4844Z" fill="#37C2DB"/>
<path d="M12.8845 22.5949L20.8419 29.5576L33.074 29.5264L12.9321 11.8354L12.8845 22.5949Z" fill="#38C2DA"/>
<path d="M0.5 13.0511V22.4159L8.74756 29.591L8.7999 5.84277L0.5 13.0511Z" fill="#00538C"/>
<path d="M24.5456 6.62135L16.9784 0L5.3457 0.0291414L24.5004 16.8542L24.5456 6.62135Z" fill="#00538C"/>
</g>
<defs>
<clipPath id="clip0_324_117">
<rect width="180" height="29.5911" fill="white" transform="translate(0.5)"/>
</clipPath>
</defs>
</svg>
